<mxfile host="Electron" modified="2023-05-24T14:21:01.744Z" agent="Mozilla/5.0 (Windows NT 10.0; Win64; x64) AppleWebKit/537.36 (KHTML, like Gecko) draw.io/21.2.8 Chrome/112.0.5615.165 Electron/24.2.0 Safari/537.36" etag="0unVElkgVfVxpWMWvINV" version="21.2.8" type="device" pages="2">
  <diagram name="High Level" id="1p8Vnag_sHgWTCmwgpqx">
    <mxGraphModel dx="780" dy="590" grid="1" gridSize="10" guides="1" tooltips="1" connect="1" arrows="1" fold="1" page="1" pageScale="1" pageWidth="850" pageHeight="1100" math="0" shadow="0">
      <root>
        <mxCell id="0" />
        <mxCell id="1" parent="0" />
        <mxCell id="8iVGkUn0U2OcRIxGFu8U-22" value="" style="rounded=0;whiteSpace=wrap;html=1;dashed=1;" vertex="1" parent="1">
          <mxGeometry x="30" y="20" width="410" height="240" as="geometry" />
        </mxCell>
        <mxCell id="8iVGkUn0U2OcRIxGFu8U-1" value="Reservations" style="rounded=1;whiteSpace=wrap;html=1;fillColor=#ffe6cc;strokeColor=#d79b00;" vertex="1" parent="1">
          <mxGeometry x="175" y="40" width="120" height="60" as="geometry" />
        </mxCell>
        <mxCell id="8iVGkUn0U2OcRIxGFu8U-2" value="Partners" style="rounded=1;whiteSpace=wrap;html=1;fillColor=#ffe6cc;strokeColor=#d79b00;" vertex="1" parent="1">
          <mxGeometry x="45" y="110" width="120" height="60" as="geometry" />
        </mxCell>
        <mxCell id="8iVGkUn0U2OcRIxGFu8U-4" value="Events" style="rounded=1;whiteSpace=wrap;html=1;fillColor=#ffe6cc;strokeColor=#d79b00;" vertex="1" parent="1">
          <mxGeometry x="45" y="40" width="120" height="60" as="geometry" />
        </mxCell>
        <mxCell id="8iVGkUn0U2OcRIxGFu8U-5" value="Ticktes" style="rounded=1;whiteSpace=wrap;html=1;fillColor=#ffe6cc;strokeColor=#d79b00;" vertex="1" parent="1">
          <mxGeometry x="305" y="110" width="120" height="60" as="geometry" />
        </mxCell>
        <mxCell id="8iVGkUn0U2OcRIxGFu8U-6" value="Users" style="rounded=1;whiteSpace=wrap;html=1;fillColor=#ffe6cc;strokeColor=#d79b00;" vertex="1" parent="1">
          <mxGeometry x="175" y="110" width="120" height="60" as="geometry" />
        </mxCell>
        <mxCell id="8iVGkUn0U2OcRIxGFu8U-7" value="Ticketex API" style="rounded=1;whiteSpace=wrap;html=1;fillColor=#fff2cc;strokeColor=#d6b656;" vertex="1" parent="1">
          <mxGeometry x="45" y="190" width="380" height="60" as="geometry" />
        </mxCell>
        <mxCell id="8iVGkUn0U2OcRIxGFu8U-9" value="Messaging" style="rounded=1;whiteSpace=wrap;html=1;fillColor=#ffe6cc;strokeColor=#d79b00;" vertex="1" parent="1">
          <mxGeometry x="305" y="40" width="120" height="60" as="geometry" />
        </mxCell>
        <mxCell id="8iVGkUn0U2OcRIxGFu8U-18" value="" style="shape=doubleArrow;direction=south;whiteSpace=wrap;html=1;fillColor=#f5f5f5;strokeColor=#666666;arrowWidth=0.40740831163194446;arrowSize=0.3;fontColor=#333333;" vertex="1" parent="1">
          <mxGeometry x="205" y="250" width="45" height="70" as="geometry" />
        </mxCell>
        <mxCell id="8iVGkUn0U2OcRIxGFu8U-20" value="" style="group" vertex="1" connectable="0" parent="1">
          <mxGeometry x="120" y="320" width="209.68" height="130" as="geometry" />
        </mxCell>
        <mxCell id="8iVGkUn0U2OcRIxGFu8U-19" value="" style="sketch=0;aspect=fixed;pointerEvents=1;shadow=0;dashed=0;html=1;strokeColor=#6c8ebf;labelPosition=center;verticalLabelPosition=bottom;verticalAlign=top;align=center;fillColor=#dae8fc;shape=mxgraph.mscae.enterprise.internet_hollow;" vertex="1" parent="8iVGkUn0U2OcRIxGFu8U-20">
          <mxGeometry width="209.68" height="130" as="geometry" />
        </mxCell>
        <mxCell id="8iVGkUn0U2OcRIxGFu8U-11" value="" style="sketch=0;outlineConnect=0;gradientColor=none;fontColor=#545B64;strokeColor=none;fillColor=#879196;dashed=0;verticalLabelPosition=bottom;verticalAlign=top;align=center;html=1;fontSize=12;fontStyle=0;aspect=fixed;shape=mxgraph.aws4.illustration_desktop;pointerEvents=1" vertex="1" parent="8iVGkUn0U2OcRIxGFu8U-20">
          <mxGeometry x="88.35000000000002" y="25" width="32.97" height="30" as="geometry" />
        </mxCell>
        <mxCell id="8iVGkUn0U2OcRIxGFu8U-16" value="" style="verticalLabelPosition=bottom;verticalAlign=top;html=1;shadow=0;dashed=0;strokeWidth=1;shape=mxgraph.android.phone2;strokeColor=#c0c0c0;" vertex="1" parent="8iVGkUn0U2OcRIxGFu8U-20">
          <mxGeometry x="132.18" y="65" width="30" height="40" as="geometry" />
        </mxCell>
        <mxCell id="8iVGkUn0U2OcRIxGFu8U-17" value="" style="sketch=0;points=[[0.015,0.015,0],[0.985,0.015,0],[0.985,0.985,0],[0.015,0.985,0],[0.25,0,0],[0.5,0,0],[0.75,0,0],[1,0.25,0],[1,0.5,0],[1,0.75,0],[0.75,1,0],[0.5,1,0],[0.25,1,0],[0,0.75,0],[0,0.5,0],[0,0.25,0]];verticalLabelPosition=bottom;html=1;verticalAlign=top;aspect=fixed;align=center;pointerEvents=1;shape=mxgraph.cisco19.server;fillColor=#E6D0DE;strokeColor=none;" vertex="1" parent="8iVGkUn0U2OcRIxGFu8U-20">
          <mxGeometry x="57.18000000000001" y="60" width="27.500000000000004" height="50" as="geometry" />
        </mxCell>
        <mxCell id="E7haLEE0IXGlzszygeVm-1" value="Payment &lt;br&gt;Processor" style="rounded=1;whiteSpace=wrap;html=1;fillColor=#dae8fc;strokeColor=#6c8ebf;" vertex="1" parent="1">
          <mxGeometry x="400" y="310" width="120" height="60" as="geometry" />
        </mxCell>
        <mxCell id="E7haLEE0IXGlzszygeVm-2" value="" style="shape=flexArrow;endArrow=classic;html=1;rounded=0;fillColor=#f5f5f5;strokeColor=#666666;" edge="1" parent="1">
          <mxGeometry width="50" height="50" relative="1" as="geometry">
            <mxPoint x="330" y="380" as="sourcePoint" />
            <mxPoint x="390" y="350" as="targetPoint" />
          </mxGeometry>
        </mxCell>
        <mxCell id="E7haLEE0IXGlzszygeVm-4" value="" style="shape=flexArrow;endArrow=classic;html=1;rounded=0;fillColor=#f5f5f5;strokeColor=#666666;" edge="1" parent="1">
          <mxGeometry width="50" height="50" relative="1" as="geometry">
            <mxPoint x="345" y="270" as="sourcePoint" />
            <mxPoint x="390" y="320" as="targetPoint" />
          </mxGeometry>
        </mxCell>
      </root>
    </mxGraphModel>
  </diagram>
  <diagram id="kRQAwpse3mrcJJd0zBaQ" name="Flows">
    <mxGraphModel dx="780" dy="1690" grid="1" gridSize="10" guides="1" tooltips="1" connect="1" arrows="1" fold="1" page="1" pageScale="1" pageWidth="850" pageHeight="1100" math="0" shadow="0">
      <root>
        <mxCell id="0" />
        <mxCell id="1" parent="0" />
        <mxCell id="KpJY1vqc36Pxv8VLNzSu-1" value="Partner" style="shape=umlActor;verticalLabelPosition=bottom;verticalAlign=top;html=1;outlineConnect=0;" vertex="1" parent="1">
          <mxGeometry x="90" y="90" width="20" height="40" as="geometry" />
        </mxCell>
        <mxCell id="49WmgiS_qdLL2GTTpCdR-44" style="edgeStyle=orthogonalEdgeStyle;rounded=0;orthogonalLoop=1;jettySize=auto;html=1;" edge="1" parent="1" source="KpJY1vqc36Pxv8VLNzSu-3" target="KpJY1vqc36Pxv8VLNzSu-4">
          <mxGeometry relative="1" as="geometry" />
        </mxCell>
        <mxCell id="49WmgiS_qdLL2GTTpCdR-45" style="edgeStyle=orthogonalEdgeStyle;rounded=0;orthogonalLoop=1;jettySize=auto;html=1;" edge="1" parent="1" source="KpJY1vqc36Pxv8VLNzSu-3" target="KpJY1vqc36Pxv8VLNzSu-5">
          <mxGeometry relative="1" as="geometry" />
        </mxCell>
        <mxCell id="KpJY1vqc36Pxv8VLNzSu-3" value="API" style="rounded=1;whiteSpace=wrap;html=1;" vertex="1" parent="1">
          <mxGeometry x="180" y="80" width="60" height="60" as="geometry" />
        </mxCell>
        <mxCell id="49WmgiS_qdLL2GTTpCdR-68" style="edgeStyle=orthogonalEdgeStyle;rounded=0;orthogonalLoop=1;jettySize=auto;html=1;entryX=0.25;entryY=0;entryDx=0;entryDy=0;" edge="1" parent="1" source="KpJY1vqc36Pxv8VLNzSu-4" target="KpJY1vqc36Pxv8VLNzSu-6">
          <mxGeometry relative="1" as="geometry" />
        </mxCell>
        <mxCell id="KpJY1vqc36Pxv8VLNzSu-4" value="Partners" style="rounded=1;whiteSpace=wrap;html=1;" vertex="1" parent="1">
          <mxGeometry x="320" y="30" width="120" height="60" as="geometry" />
        </mxCell>
        <mxCell id="49WmgiS_qdLL2GTTpCdR-43" style="edgeStyle=orthogonalEdgeStyle;rounded=0;orthogonalLoop=1;jettySize=auto;html=1;" edge="1" parent="1" source="KpJY1vqc36Pxv8VLNzSu-5" target="KpJY1vqc36Pxv8VLNzSu-6">
          <mxGeometry relative="1" as="geometry">
            <Array as="points">
              <mxPoint x="380" y="110" />
            </Array>
          </mxGeometry>
        </mxCell>
        <mxCell id="KpJY1vqc36Pxv8VLNzSu-5" value="Events" style="rounded=1;whiteSpace=wrap;html=1;" vertex="1" parent="1">
          <mxGeometry x="320" y="130" width="120" height="60" as="geometry" />
        </mxCell>
        <mxCell id="KpJY1vqc36Pxv8VLNzSu-6" value="Broker" style="rounded=1;whiteSpace=wrap;html=1;" vertex="1" parent="1">
          <mxGeometry x="510" y="81" width="120" height="60" as="geometry" />
        </mxCell>
        <mxCell id="49WmgiS_qdLL2GTTpCdR-38" style="edgeStyle=orthogonalEdgeStyle;rounded=0;orthogonalLoop=1;jettySize=auto;html=1;" edge="1" parent="1" source="KpJY1vqc36Pxv8VLNzSu-7" target="KpJY1vqc36Pxv8VLNzSu-8">
          <mxGeometry relative="1" as="geometry" />
        </mxCell>
        <mxCell id="49WmgiS_qdLL2GTTpCdR-39" style="edgeStyle=orthogonalEdgeStyle;rounded=0;orthogonalLoop=1;jettySize=auto;html=1;entryX=0;entryY=0.3333333333333333;entryDx=0;entryDy=0;entryPerimeter=0;" edge="1" parent="1" source="KpJY1vqc36Pxv8VLNzSu-7" target="49WmgiS_qdLL2GTTpCdR-35">
          <mxGeometry relative="1" as="geometry" />
        </mxCell>
        <mxCell id="49WmgiS_qdLL2GTTpCdR-42" style="edgeStyle=orthogonalEdgeStyle;rounded=0;orthogonalLoop=1;jettySize=auto;html=1;" edge="1" parent="1" source="KpJY1vqc36Pxv8VLNzSu-7" target="KpJY1vqc36Pxv8VLNzSu-6">
          <mxGeometry relative="1" as="geometry">
            <Array as="points">
              <mxPoint x="570" y="171" />
            </Array>
          </mxGeometry>
        </mxCell>
        <mxCell id="KpJY1vqc36Pxv8VLNzSu-7" value="Messaging" style="rounded=1;whiteSpace=wrap;html=1;" vertex="1" parent="1">
          <mxGeometry x="710" y="141" width="120" height="60" as="geometry" />
        </mxCell>
        <mxCell id="KpJY1vqc36Pxv8VLNzSu-8" value="User" style="shape=umlActor;verticalLabelPosition=bottom;verticalAlign=top;html=1;outlineConnect=0;" vertex="1" parent="1">
          <mxGeometry x="930" y="186" width="30" height="60" as="geometry" />
        </mxCell>
        <mxCell id="KpJY1vqc36Pxv8VLNzSu-9" value="" style="endArrow=classic;html=1;rounded=0;" edge="1" parent="1" source="KpJY1vqc36Pxv8VLNzSu-1" target="KpJY1vqc36Pxv8VLNzSu-3">
          <mxGeometry width="50" height="50" relative="1" as="geometry">
            <mxPoint x="90" y="250" as="sourcePoint" />
            <mxPoint x="140" y="200" as="targetPoint" />
          </mxGeometry>
        </mxCell>
        <mxCell id="e7Vf1aV44r3u2S3hxBdG-3" style="edgeStyle=orthogonalEdgeStyle;rounded=0;orthogonalLoop=1;jettySize=auto;html=1;" edge="1" parent="1" source="e7Vf1aV44r3u2S3hxBdG-1" target="e7Vf1aV44r3u2S3hxBdG-2">
          <mxGeometry relative="1" as="geometry" />
        </mxCell>
        <mxCell id="49WmgiS_qdLL2GTTpCdR-25" style="edgeStyle=orthogonalEdgeStyle;rounded=0;orthogonalLoop=1;jettySize=auto;html=1;" edge="1" parent="1" source="e7Vf1aV44r3u2S3hxBdG-1" target="49WmgiS_qdLL2GTTpCdR-2">
          <mxGeometry relative="1" as="geometry" />
        </mxCell>
        <mxCell id="e7Vf1aV44r3u2S3hxBdG-1" value="User" style="shape=umlActor;verticalLabelPosition=bottom;verticalAlign=top;html=1;outlineConnect=0;" vertex="1" parent="1">
          <mxGeometry x="80" y="332" width="30" height="60" as="geometry" />
        </mxCell>
        <mxCell id="49WmgiS_qdLL2GTTpCdR-22" style="edgeStyle=orthogonalEdgeStyle;rounded=0;orthogonalLoop=1;jettySize=auto;html=1;" edge="1" parent="1" source="e7Vf1aV44r3u2S3hxBdG-2" target="49WmgiS_qdLL2GTTpCdR-13">
          <mxGeometry relative="1" as="geometry" />
        </mxCell>
        <mxCell id="49WmgiS_qdLL2GTTpCdR-23" style="edgeStyle=orthogonalEdgeStyle;rounded=0;orthogonalLoop=1;jettySize=auto;html=1;" edge="1" parent="1" source="e7Vf1aV44r3u2S3hxBdG-2" target="e7Vf1aV44r3u2S3hxBdG-5">
          <mxGeometry relative="1" as="geometry" />
        </mxCell>
        <mxCell id="49WmgiS_qdLL2GTTpCdR-24" style="edgeStyle=orthogonalEdgeStyle;rounded=0;orthogonalLoop=1;jettySize=auto;html=1;" edge="1" parent="1" source="e7Vf1aV44r3u2S3hxBdG-2" target="6w9c9fEO1WnPDtiO_tJu-4">
          <mxGeometry relative="1" as="geometry">
            <Array as="points">
              <mxPoint x="200" y="490" />
            </Array>
          </mxGeometry>
        </mxCell>
        <mxCell id="49WmgiS_qdLL2GTTpCdR-69" style="edgeStyle=orthogonalEdgeStyle;rounded=0;orthogonalLoop=1;jettySize=auto;html=1;" edge="1" parent="1" source="e7Vf1aV44r3u2S3hxBdG-2" target="49WmgiS_qdLL2GTTpCdR-2">
          <mxGeometry relative="1" as="geometry">
            <Array as="points">
              <mxPoint x="190" y="555" />
            </Array>
          </mxGeometry>
        </mxCell>
        <mxCell id="e7Vf1aV44r3u2S3hxBdG-2" value="API" style="rounded=1;whiteSpace=wrap;html=1;" vertex="1" parent="1">
          <mxGeometry x="170" y="332" width="60" height="60" as="geometry" />
        </mxCell>
        <mxCell id="49WmgiS_qdLL2GTTpCdR-28" style="edgeStyle=orthogonalEdgeStyle;rounded=0;orthogonalLoop=1;jettySize=auto;html=1;" edge="1" parent="1" source="e7Vf1aV44r3u2S3hxBdG-5" target="49WmgiS_qdLL2GTTpCdR-6">
          <mxGeometry relative="1" as="geometry" />
        </mxCell>
        <mxCell id="e7Vf1aV44r3u2S3hxBdG-5" value="Reservations" style="rounded=1;whiteSpace=wrap;html=1;" vertex="1" parent="1">
          <mxGeometry x="330" y="375" width="120" height="60" as="geometry" />
        </mxCell>
        <mxCell id="6w9c9fEO1WnPDtiO_tJu-4" value="Tickets" style="rounded=1;whiteSpace=wrap;html=1;" vertex="1" parent="1">
          <mxGeometry x="330" y="460" width="120" height="60" as="geometry" />
        </mxCell>
        <mxCell id="49WmgiS_qdLL2GTTpCdR-2" value="Payment &lt;br&gt;Processor" style="rounded=1;whiteSpace=wrap;html=1;" vertex="1" parent="1">
          <mxGeometry x="40" y="530" width="110" height="50" as="geometry" />
        </mxCell>
        <mxCell id="49WmgiS_qdLL2GTTpCdR-6" value="Broker" style="rounded=1;whiteSpace=wrap;html=1;" vertex="1" parent="1">
          <mxGeometry x="550" y="375" width="120" height="60" as="geometry" />
        </mxCell>
        <mxCell id="49WmgiS_qdLL2GTTpCdR-30" style="edgeStyle=orthogonalEdgeStyle;rounded=0;orthogonalLoop=1;jettySize=auto;html=1;entryX=1;entryY=0.5;entryDx=0;entryDy=0;" edge="1" parent="1" source="49WmgiS_qdLL2GTTpCdR-7" target="49WmgiS_qdLL2GTTpCdR-6">
          <mxGeometry relative="1" as="geometry" />
        </mxCell>
        <mxCell id="49WmgiS_qdLL2GTTpCdR-31" style="edgeStyle=orthogonalEdgeStyle;rounded=0;orthogonalLoop=1;jettySize=auto;html=1;" edge="1" parent="1" source="49WmgiS_qdLL2GTTpCdR-7" target="49WmgiS_qdLL2GTTpCdR-15">
          <mxGeometry relative="1" as="geometry" />
        </mxCell>
        <mxCell id="49WmgiS_qdLL2GTTpCdR-32" style="edgeStyle=orthogonalEdgeStyle;rounded=0;orthogonalLoop=1;jettySize=auto;html=1;entryX=0.5;entryY=0.5;entryDx=0;entryDy=0;entryPerimeter=0;" edge="1" parent="1" source="49WmgiS_qdLL2GTTpCdR-7" target="49WmgiS_qdLL2GTTpCdR-10">
          <mxGeometry relative="1" as="geometry" />
        </mxCell>
        <mxCell id="49WmgiS_qdLL2GTTpCdR-7" value="Messaging" style="rounded=1;whiteSpace=wrap;html=1;" vertex="1" parent="1">
          <mxGeometry x="750" y="375" width="120" height="60" as="geometry" />
        </mxCell>
        <mxCell id="49WmgiS_qdLL2GTTpCdR-10" value="User" style="shape=umlActor;verticalLabelPosition=bottom;verticalAlign=top;html=1;outlineConnect=0;" vertex="1" parent="1">
          <mxGeometry x="930" y="320" width="30" height="60" as="geometry" />
        </mxCell>
        <mxCell id="49WmgiS_qdLL2GTTpCdR-29" style="edgeStyle=orthogonalEdgeStyle;rounded=0;orthogonalLoop=1;jettySize=auto;html=1;" edge="1" parent="1" source="49WmgiS_qdLL2GTTpCdR-13" target="49WmgiS_qdLL2GTTpCdR-6">
          <mxGeometry relative="1" as="geometry" />
        </mxCell>
        <mxCell id="49WmgiS_qdLL2GTTpCdR-13" value="Events" style="rounded=1;whiteSpace=wrap;html=1;" vertex="1" parent="1">
          <mxGeometry x="330" y="290" width="120" height="60" as="geometry" />
        </mxCell>
        <mxCell id="49WmgiS_qdLL2GTTpCdR-15" value="Partner" style="shape=umlActor;verticalLabelPosition=bottom;verticalAlign=top;html=1;outlineConnect=0;" vertex="1" parent="1">
          <mxGeometry x="930" y="430" width="30" height="60" as="geometry" />
        </mxCell>
        <mxCell id="49WmgiS_qdLL2GTTpCdR-18" value="New event" style="text;html=1;strokeColor=none;fillColor=none;align=center;verticalAlign=middle;whiteSpace=wrap;rounded=0;fontSize=34;" vertex="1" parent="1">
          <mxGeometry x="40" width="240" height="30" as="geometry" />
        </mxCell>
        <mxCell id="49WmgiS_qdLL2GTTpCdR-19" value="Buying a ticket" style="text;html=1;strokeColor=none;fillColor=none;align=center;verticalAlign=middle;whiteSpace=wrap;rounded=0;fontSize=34;" vertex="1" parent="1">
          <mxGeometry x="70" y="220" width="240" height="30" as="geometry" />
        </mxCell>
        <mxCell id="49WmgiS_qdLL2GTTpCdR-20" value="Reservation Expired" style="text;html=1;strokeColor=none;fillColor=none;align=center;verticalAlign=middle;whiteSpace=wrap;rounded=0;fontSize=34;" vertex="1" parent="1">
          <mxGeometry x="80" y="630" width="340" height="30" as="geometry" />
        </mxCell>
        <mxCell id="49WmgiS_qdLL2GTTpCdR-41" style="edgeStyle=orthogonalEdgeStyle;rounded=0;orthogonalLoop=1;jettySize=auto;html=1;" edge="1" parent="1" source="49WmgiS_qdLL2GTTpCdR-27" target="KpJY1vqc36Pxv8VLNzSu-6">
          <mxGeometry relative="1" as="geometry" />
        </mxCell>
        <mxCell id="49WmgiS_qdLL2GTTpCdR-27" value="Analytics" style="rounded=1;whiteSpace=wrap;html=1;" vertex="1" parent="1">
          <mxGeometry x="710" y="16" width="120" height="60" as="geometry" />
        </mxCell>
        <mxCell id="49WmgiS_qdLL2GTTpCdR-34" style="edgeStyle=orthogonalEdgeStyle;rounded=0;orthogonalLoop=1;jettySize=auto;html=1;" edge="1" parent="1" source="49WmgiS_qdLL2GTTpCdR-33" target="49WmgiS_qdLL2GTTpCdR-6">
          <mxGeometry relative="1" as="geometry">
            <Array as="points">
              <mxPoint x="650" y="302" />
            </Array>
          </mxGeometry>
        </mxCell>
        <mxCell id="49WmgiS_qdLL2GTTpCdR-33" value="Analytics" style="rounded=1;whiteSpace=wrap;html=1;" vertex="1" parent="1">
          <mxGeometry x="750" y="272" width="120" height="60" as="geometry" />
        </mxCell>
        <mxCell id="49WmgiS_qdLL2GTTpCdR-35" value="Partner" style="shape=umlActor;verticalLabelPosition=bottom;verticalAlign=top;html=1;outlineConnect=0;" vertex="1" parent="1">
          <mxGeometry x="930" y="66" width="30" height="60" as="geometry" />
        </mxCell>
        <mxCell id="49WmgiS_qdLL2GTTpCdR-60" style="edgeStyle=orthogonalEdgeStyle;rounded=0;orthogonalLoop=1;jettySize=auto;html=1;" edge="1" parent="1" source="49WmgiS_qdLL2GTTpCdR-46" target="49WmgiS_qdLL2GTTpCdR-47">
          <mxGeometry relative="1" as="geometry" />
        </mxCell>
        <mxCell id="49WmgiS_qdLL2GTTpCdR-46" value="Reservations" style="rounded=1;whiteSpace=wrap;html=1;" vertex="1" parent="1">
          <mxGeometry x="295" y="850" width="120" height="60" as="geometry" />
        </mxCell>
        <mxCell id="49WmgiS_qdLL2GTTpCdR-47" value="Broker" style="rounded=1;whiteSpace=wrap;html=1;" vertex="1" parent="1">
          <mxGeometry x="520" y="850" width="120" height="60" as="geometry" />
        </mxCell>
        <mxCell id="49WmgiS_qdLL2GTTpCdR-63" style="edgeStyle=orthogonalEdgeStyle;rounded=0;orthogonalLoop=1;jettySize=auto;html=1;" edge="1" parent="1" source="49WmgiS_qdLL2GTTpCdR-48" target="49WmgiS_qdLL2GTTpCdR-49">
          <mxGeometry relative="1" as="geometry" />
        </mxCell>
        <mxCell id="49WmgiS_qdLL2GTTpCdR-64" style="edgeStyle=orthogonalEdgeStyle;rounded=0;orthogonalLoop=1;jettySize=auto;html=1;" edge="1" parent="1" source="49WmgiS_qdLL2GTTpCdR-48" target="49WmgiS_qdLL2GTTpCdR-51">
          <mxGeometry relative="1" as="geometry" />
        </mxCell>
        <mxCell id="49WmgiS_qdLL2GTTpCdR-66" style="edgeStyle=orthogonalEdgeStyle;rounded=0;orthogonalLoop=1;jettySize=auto;html=1;" edge="1" parent="1" source="49WmgiS_qdLL2GTTpCdR-48" target="49WmgiS_qdLL2GTTpCdR-47">
          <mxGeometry relative="1" as="geometry" />
        </mxCell>
        <mxCell id="49WmgiS_qdLL2GTTpCdR-48" value="Messaging" style="rounded=1;whiteSpace=wrap;html=1;" vertex="1" parent="1">
          <mxGeometry x="715" y="805" width="120" height="60" as="geometry" />
        </mxCell>
        <mxCell id="49WmgiS_qdLL2GTTpCdR-49" value="User" style="shape=umlActor;verticalLabelPosition=bottom;verticalAlign=top;html=1;outlineConnect=0;" vertex="1" parent="1">
          <mxGeometry x="895" y="750" width="30" height="60" as="geometry" />
        </mxCell>
        <mxCell id="49WmgiS_qdLL2GTTpCdR-53" style="edgeStyle=orthogonalEdgeStyle;rounded=0;orthogonalLoop=1;jettySize=auto;html=1;" edge="1" parent="1" source="49WmgiS_qdLL2GTTpCdR-50" target="49WmgiS_qdLL2GTTpCdR-47">
          <mxGeometry relative="1" as="geometry" />
        </mxCell>
        <mxCell id="49WmgiS_qdLL2GTTpCdR-50" value="Events" style="rounded=1;whiteSpace=wrap;html=1;" vertex="1" parent="1">
          <mxGeometry x="295" y="720" width="120" height="60" as="geometry" />
        </mxCell>
        <mxCell id="49WmgiS_qdLL2GTTpCdR-51" value="Partner" style="shape=umlActor;verticalLabelPosition=bottom;verticalAlign=top;html=1;outlineConnect=0;" vertex="1" parent="1">
          <mxGeometry x="895" y="860" width="30" height="60" as="geometry" />
        </mxCell>
        <mxCell id="49WmgiS_qdLL2GTTpCdR-57" style="edgeStyle=orthogonalEdgeStyle;rounded=0;orthogonalLoop=1;jettySize=auto;html=1;" edge="1" parent="1" source="49WmgiS_qdLL2GTTpCdR-56" target="49WmgiS_qdLL2GTTpCdR-50">
          <mxGeometry relative="1" as="geometry" />
        </mxCell>
        <mxCell id="49WmgiS_qdLL2GTTpCdR-59" style="edgeStyle=orthogonalEdgeStyle;rounded=0;orthogonalLoop=1;jettySize=auto;html=1;" edge="1" parent="1" source="49WmgiS_qdLL2GTTpCdR-56" target="49WmgiS_qdLL2GTTpCdR-46">
          <mxGeometry relative="1" as="geometry">
            <Array as="points">
              <mxPoint x="190" y="880" />
            </Array>
          </mxGeometry>
        </mxCell>
        <mxCell id="49WmgiS_qdLL2GTTpCdR-56" value="Batch&lt;br&gt;Service" style="rounded=1;whiteSpace=wrap;html=1;" vertex="1" parent="1">
          <mxGeometry x="130" y="720" width="120" height="60" as="geometry" />
        </mxCell>
        <mxCell id="49WmgiS_qdLL2GTTpCdR-65" style="edgeStyle=orthogonalEdgeStyle;rounded=0;orthogonalLoop=1;jettySize=auto;html=1;" edge="1" parent="1" source="49WmgiS_qdLL2GTTpCdR-61" target="49WmgiS_qdLL2GTTpCdR-47">
          <mxGeometry relative="1" as="geometry">
            <Array as="points">
              <mxPoint x="620" y="720" />
            </Array>
          </mxGeometry>
        </mxCell>
        <mxCell id="49WmgiS_qdLL2GTTpCdR-61" value="Analytics" style="rounded=1;whiteSpace=wrap;html=1;" vertex="1" parent="1">
          <mxGeometry x="720" y="690" width="120" height="60" as="geometry" />
        </mxCell>
      </root>
    </mxGraphModel>
  </diagram>
</mxfile>
